# xmcd
#
# Track frame offsets: 
#        150
#        17542
#        36758
#        59620
#        72808
#        91437
#        100385
#        117720
#        135263
#        158531
#        190282
#        211113
#        229115
#        253884
#        271889
#        288037
#
# Disc length: 4078 seconds
#
# Revision: 0
# Processed by: cddbd v1.5.1PL0 Copyright (c) Steve Scherf et al.
# Submitted via: ExactAudioCopy v0.95a5
#
DISCID=dd0fec10
DTITLE=Thomas D. - Solo
DYEAR=1998
DGENRE=A Cappella
TTITLE0=Rückenwind
TTITLE1=Pole Position
TTITLE2=Killesberg Baby
TTITLE3=Pilzköpfe
TTITLE4=Solo
TTITLE5=Ich, ich, ich, oder der Schrei des Ego
TTITLE6=Sie hacken auf mir rum
TTITLE7=Lo-oser
TTITLE8=Weltenläufer
TTITLE9=Lass los
TTITLE10=Die Welt ist 1
TTITLE11=Herpes
TTITLE12=Das einzige Prinzip
TTITLE13=Thomas D is ill
TTITLE14=Frisör
TTITLE15=Killesberg Baby (Millas Benztown Mix)
EXTD=
EXTT0=
EXTT1=
EXTT2=
EXTT3=
EXTT4=
EXTT5=
EXTT6=
EXTT7=
EXTT8=
EXTT9=
EXTT10=
EXTT11=
EXTT12=
EXTT13=
EXTT14=
EXTT15=
PLAYORDER=
